<svg xmlns="http://www.w3.org/2000/svg" data-dmid="DmBrandClaimIcon" viewBox="0 0 20 11.51" width="24" pointer-events="none" data-designsystem="true" role="img" color="#002878" height="100%"><path fill="#FFF" d="m15.52 4.7-.59.1c-.06-.13-.3-.52-.3-.52s-.48.08-.56.09l.25-1.55c.16-.81-.09-1.53-.99-1.53-.35 0-.64.16-.8.27a.854.854 0 0 0-.62-.27c-.16 0-.52.03-.86.28l.04-.23c-.2-.02-.95 0-1.15.02l.25-1.33C9.84 0 8.9-.05 7.88.09l-.26 1.29c-1 .29-1.64 1.21-1.64 2.49 0 .25.03.47.09.65-.57.07-1.6.25-2.29.63.16.15.39.37.56.57l-.58.2c.53.61.93 1.18 1.29 2.08.75-.39 1.78-.97 3.65-.97.88 0 3.48.67 5.28.67.57 0 1.02-.05 1.46-.28.11-.57.24-1.76.08-2.72"></path><path fill="#E30613" d="M14.71 5.76c-.46.31-1.38.71-2.8.35-.14-.04-.27-.07-.39-.11-.9-.39-1.81-.81-2.18-1.08 1.03.16 2.57.32 5.05-.08 0 0 .23.37.32.92m-9.65.25-.43.15s.5.59.58.78l.12.34s1.57-.86 3.85-.73c.52.03.97.18.97.18s-.93-.61-1.11-.66c-.89-.22-1.74-.29-2.25-.31-.86.23-1.6.62-1.6.62s-.07-.18-.13-.37"></path><path fill="#FEC700" d="M15.06 5.47s-.11.14-.35.29c-.46.31-1.38.71-2.8.35-.14-.04-.27-.07-.39-.11-1.3-.38-2.07-.87-3.8-1.09-1.18.03-2.37.17-3.03.43 0 0 .18.18.23.26.03.06.09.23.15.41.07.19.12.37.12.37s.74-.39 1.6-.62c.41-.11.84-.18 1.24-.16 1.33.08 2.4.77 3.58 1.33.82.23 2.83.41 3.4.15-.01-.01.11-.55.05-1.61"></path><path fill="#1F3685" d="M8.16 2.45c-.54 0-.85.75-.85 1.28 0 .22.05.32.17.32.3 0 .82-.88.92-1.42l.02-.14a.947.947 0 0 0-.26-.04m.63 2.26h-.78c.04-.2.1-.43.21-.74h-.01c-.25.41-.6.81-1.04.81-.45 0-.68-.29-.68-.91 0-1.08.56-2.07 1.82-2.07.07 0 .14 0 .25.02l.13-.66c-.13-.02-.32-.05-.48-.06l.11-.54c.4-.04.81-.07 1.28-.05l-.81 4.2zm4.72 0h-.78l.28-1.75c.06-.29.02-.4-.11-.4-.27 0-.74.7-.85 1.38l-.12.77h-.78l.29-1.75c.06-.29.02-.4-.11-.4-.27 0-.73.69-.86 1.37l-.15.78h-.78l.42-2.2v-.02c-.13-.02-.32-.05-.48-.06l.11-.54c.41-.04.8-.06 1.23-.04-.05.23-.12.48-.22.73h.01c.26-.44.54-.78 1.04-.78.34 0 .56.18.56.57 0 .07-.02.14-.05.26.26-.48.59-.83 1.09-.83.56 0 .67.4.57.94l-.31 1.97zM.61 9.75l-.34.1.1.36c.01.03.01.05-.05.07-.07.02-.08 0-.09-.03L0 9.43c0-.03 0-.05.06-.07.07-.02.08 0 .09.03l.09.33.34-.09-.09-.33c-.01-.03-.01-.05.06-.07.07-.02.08 0 .09.03l.23.81c.01.03.01.05-.06.07s-.08 0-.09-.03l-.11-.36zm.55.24c.01.03.02.05.08.04.07-.02.07-.04.06-.07l-.2-.81c-.01-.03-.02-.05-.09-.04-.07.02-.07.04-.06.07l.21.81zm.96-.16c.02 0 .04-.02.03-.07-.01-.06-.03-.06-.06-.05l-.35.07-.06-.29.3-.06c.02 0 .04-.02.03-.07-.01-.05-.03-.06-.06-.05l-.3.06-.05-.27.35-.07c.02 0 .04-.02.03-.07-.01-.06-.03-.06-.06-.05L1.49 9c-.04.01-.06.03-.05.07l.17.81c.01.04.03.05.07.05l.44-.1zm.75-.18c.02.03.05.05.11.04.05-.01.07-.02.07-.04 0-.01 0-.01-.01-.02l-.25-.31c.1-.06.14-.16.12-.28-.02-.16-.14-.26-.35-.23l-.22.03c-.04.01-.06.02-.05.07l.13.82c0 .03.02.05.08.04.07-.01.07-.03.06-.07l-.05-.32.14-.02.22.29zm-.38-.39-.05-.32.12-.02c.13-.02.18.03.2.13s-.02.17-.15.19l-.12.02zm1.54.31c.19-.02.28-.14.27-.28-.01-.11-.07-.19-.18-.21.08-.05.11-.13.11-.23-.01-.14-.11-.23-.29-.22l-.25.02c-.04 0-.06.02-.05.07l.07.82c0 .04.02.06.07.05l.25-.02zm-.23-.52-.02-.28.13-.01c.11-.01.16.04.17.13s-.03.15-.14.16H3.8zm.04.41-.03-.3.16-.01c.11-.01.17.05.18.14.01.09-.03.15-.15.16l-.16.01zm.75.01c0 .03.01.05.08.05s.07-.03.07-.06l-.05-.84c0-.03-.01-.05-.08-.05s-.07.03-.07.06l.05.84zm.94-.03c.02.04.04.05.09.05.07 0 .08-.02.07-.06l-.02-.84c0-.03-.01-.05-.07-.05s-.07.02-.07.06l.01.45c0 .07 0 .12.01.2-.03-.08-.05-.12-.09-.2l-.25-.44c-.02-.04-.04-.05-.1-.05-.07 0-.09.03-.08.06l.02.83c0 .03.01.05.07.05s.07-.02.07-.06l-.01-.48c0-.07 0-.12-.01-.2.04.09.05.12.09.2l.27.48zm.92 0c0 .03 0 .05.07.06.07 0 .07-.02.07-.05l.01-.84c0-.03 0-.05-.07-.06-.07 0-.07.02-.07.05l-.01.84zm.78.08c.08 0 .16-.01.19-.03.04-.01.05-.03.05-.05s-.01-.08-.04-.08-.08.04-.18.03c-.15 0-.23-.11-.23-.36.01-.25.11-.36.26-.36.08 0 .13.04.16.04.04 0 .05-.06.05-.09 0-.02-.01-.03-.04-.05-.01.01-.07-.02-.15-.02-.23-.01-.41.14-.42.49-.02.33.13.47.35.48m.98-.01c0 .03 0 .05.07.06.07 0 .07-.02.08-.05l.05-.84c0-.03 0-.05-.07-.06-.07 0-.07.02-.08.05l-.02.34-.35-.02.02-.34c0-.03 0-.05-.07-.06s-.07.02-.08.05l-.05.84c0 .03 0 .05.07.06.07 0 .07-.02.08-.05l.02-.37.35.02-.02.37zm1.53.12c0 .03 0 .05.07.06.07 0 .07-.02.08-.05l.07-.82c0-.04-.01-.07-.08-.07-.07-.01-.09.02-.11.06l-.23.39-.17-.43c-.02-.04-.03-.07-.11-.08s-.09.02-.09.06l-.07.82c0 .03 0 .05.07.06.07 0 .07-.02.07-.05l.04-.47c.01-.07.01-.12.01-.19l.14.38c.01.03.03.06.08.06s.07-.02.09-.05l.21-.35c-.01.07-.02.11-.02.2l-.05.47zm.97.12c.03 0 .05 0 .05-.06s-.01-.07-.04-.07l-.36-.02.02-.29.31.02c.03 0 .05 0 .05-.06s-.01-.06-.04-.07l-.31-.02.02-.27.36.02c.03 0 .05 0 .05-.06s-.01-.07-.04-.07l-.44-.03c-.04 0-.06.01-.06.05l-.06.82c0 .04.01.06.05.06l.44.05zm.79-.01c.02.04.04.06.09.06.07 0 .08-.02.08-.06l.03-.83c0-.03 0-.05-.07-.06-.06 0-.07.02-.07.05l-.02.45v.2a4.16 4.16 0 0 0-.08-.2l-.23-.46c-.02-.04-.04-.06-.1-.06-.07-.01-.08.02-.08.05l-.03.83c0 .03 0 .05.07.06.06 0 .07-.02.07-.05l.02-.48v-.2c.03.09.05.13.08.2l.24.5zm.7.09c.2 0 .33-.1.34-.28 0-.33-.43-.23-.42-.44 0-.08.06-.13.16-.13.09 0 .15.05.18.05.04 0 .05-.06.05-.08 0-.02-.01-.04-.04-.05a.427.427 0 0 0-.18-.04c-.19 0-.31.11-.31.27 0 .3.43.21.42.44 0 .09-.07.14-.18.14s-.18-.05-.22-.05-.05.06-.05.08.01.04.04.05c.02.01.1.03.21.04m.92-.01c.08 0 .16-.02.19-.04.04-.02.05-.03.05-.05s-.01-.08-.05-.08c-.03 0-.08.04-.17.04-.15 0-.24-.1-.25-.34 0-.25.09-.37.24-.37.08 0 .13.03.16.03.04 0 .05-.06.05-.09 0-.02-.01-.03-.04-.05a.398.398 0 0 0-.16-.03c-.23 0-.4.16-.4.51 0 .33.16.48.38.47m.98-.09c0 .03.01.05.07.05.07 0 .07-.02.07-.06l-.03-.84c0-.03-.01-.05-.07-.05-.07 0-.07.02-.07.06l.01.34-.35.01-.01-.34c0-.03-.01-.05-.07-.05-.07 0-.07.02-.07.06l.03.84c0 .03.01.05.07.05.07 0 .07-.02.07-.06l-.01-.37.35-.01.01.37zm-5.64 1.49c0 .03 0 .05.07.06.07 0 .07-.02.08-.05l.06-.84c0-.03 0-.05-.07-.06-.07 0-.07.02-.08.05l-.02.34-.35-.02.02-.34c0-.03 0-.05-.07-.06s-.07.02-.08.05l-.06.84c0 .03 0 .05.07.06.07 0 .07-.02.08-.05l.02-.37.35.02-.02.37zm.47.03c0 .03 0 .05.07.06.07 0 .07-.02.08-.05l.07-.84c0-.03 0-.05-.07-.06-.07 0-.07.02-.08.05l-.07.84zm.96.13c.03 0 .05 0 .05-.06s-.01-.07-.04-.07l-.36-.03.02-.29.31.02c.02 0 .05 0 .05-.06s-.01-.07-.04-.07l-.31-.02.02-.27.36.03c.03 0 .05 0 .05-.06s-.01-.07-.04-.07l-.44-.04c-.04 0-.06.01-.06.05l-.07.82c0 .04.01.06.05.06l.45.06zm.79.01c.02.04.03.06.1.06.05 0 .07 0 .07-.02 0-.01 0-.02-.01-.02l-.18-.36c.11-.04.17-.13.18-.25.01-.17-.08-.29-.29-.3l-.22-.02c-.04 0-.06.01-.06.05l-.06.83c0 .03 0 .05.07.06.07 0 .07-.02.08-.05l.02-.32.14.01.16.33zm-.29-.46.02-.32.12.01c.13.01.17.07.17.18-.01.1-.07.16-.19.15l-.12-.02zm1.62.52c.02.04.04.06.1.06.05 0 .07-.01.07-.03 0-.01 0-.02-.01-.02l-.3-.52.28-.32c.01-.01.01-.02.01-.02 0-.02-.02-.03-.07-.03-.07 0-.09.02-.12.05l-.31.36.01-.37c0-.03 0-.05-.07-.06-.07 0-.07.02-.07.05l-.02.84c0 .03 0 .05.07.06.07 0 .07-.02.07-.05l.01-.29.11-.11.24.4zm.88 0c.01.03.02.05.09.05.05 0 .07-.02.07-.04v-.02l-.26-.84c-.01-.03-.03-.05-.1-.05s-.09.02-.1.05l-.26.84v.02c0 .02.02.04.07.04.06 0 .07-.02.08-.05l.05-.18h.32l.04.18zm-.09-.3h-.25l.13-.43.12.43zm.91.01c0 .16-.06.2-.17.21-.11 0-.17-.04-.18-.2l-.02-.57c0-.03-.01-.05-.07-.05s-.07.02-.07.06l.02.59c0 .23.13.32.32.31.2 0 .32-.1.32-.34l-.02-.58c0-.03-.01-.05-.07-.05-.06 0-.07.02-.07.06l.01.56zm.89-.11c.03 0 .05-.01.04-.07 0-.06-.02-.06-.05-.06l-.3.02-.02-.29.35-.02c.02 0 .05-.01.04-.07 0-.06-.02-.06-.05-.06l-.43.02c-.04 0-.06.02-.05.06l.04.83c0 .03.01.05.07.05s.07-.02.07-.06l-.02-.34.31-.01zm.79.29c0 .03.01.05.08.05s.07-.03.07-.06l-.07-.84c0-.03-.01-.05-.08-.05s-.07.03-.07.06l.07.84zm.8 0a.64.64 0 0 0 .19-.05c.03-.02.04-.04.04-.06s-.02-.08-.05-.08-.08.05-.17.06c-.15.02-.25-.08-.27-.32-.02-.25.06-.37.21-.39.08-.01.14.02.16.02.04 0 .04-.07.04-.09s-.01-.03-.04-.05c-.02-.01-.08-.02-.16-.01-.23.02-.38.2-.35.54.01.32.18.45.4.43m.97-.18c0 .03.01.05.08.05.07-.01.07-.03.07-.06l-.1-.84c0-.03-.01-.05-.08-.05-.07.01-.07.03-.07.06l.05.34-.34.05-.05-.34c0-.03-.01-.05-.08-.05-.07.01-.07.03-.07.06l.11.83c0 .03.01.05.08.05s.07-.03.07-.06l-.05-.36.34-.05.04.37zm1.41-.18c.02 0 .04-.02.03-.07-.01-.06-.03-.06-.06-.05l-.36.07-.05-.28.31-.06c.02 0 .04-.01.03-.07s-.03-.06-.05-.05l-.31.06-.05-.27.35-.07c.02 0 .04-.01.03-.07s-.03-.06-.06-.05l-.44.08c-.04.01-.05.03-.05.07l.16.81c.01.04.03.05.07.05l.45-.1zm.33-.12c.01.03.02.05.08.04.06-.01.07-.04.06-.07l-.19-.82c-.01-.03-.02-.05-.08-.04s-.07.04-.06.07l.19.82zm.93-.26c.03.03.05.04.11.02s.07-.05.06-.08l-.24-.79c-.01-.03-.02-.05-.08-.03s-.06.04-.05.07l.13.43c.02.07.04.12.07.19-.05-.07-.09-.11-.14-.16l-.36-.36c-.03-.03-.05-.04-.11-.02-.07.02-.07.05-.07.08l.24.8c.01.03.02.05.08.03.06-.02.06-.04.05-.07l-.14-.45c-.02-.07-.04-.12-.07-.19.06.07.09.11.14.16l.38.37z"></path></svg>